<?xml version="1.0" standalone="no"?>
<!DOCTYPE svg PUBLIC "-//W3C//DTD SVG 1.1//EN" "http://www.w3.org/Graphics/SVG/1.1/DTD/svg11.dtd" >
<svg xmlns="http://www.w3.org/2000/svg">
<metadata></metadata>
<defs>
<font id="mtf_sweet_cheeksregular" horiz-adv-x="1014" >
<font-face units-per-em="2048" ascent="1638" descent="-410" />
<missing-glyph horiz-adv-x="508" />
<glyph horiz-adv-x="2048" />
<glyph horiz-adv-x="2048" />
<glyph unicode="&#xd;" horiz-adv-x="508" />
<glyph unicode=" "  horiz-adv-x="508" />
<glyph unicode="&#x09;" horiz-adv-x="508" />
<glyph unicode="&#xa0;" horiz-adv-x="508" />
<glyph unicode="!" horiz-adv-x="376" d="M40 124q0 92 116 136l40 4q140 -14 140 -100v-16q0 -118 -160 -148q-132 17 -132 120q-4 0 -4 4zM76 848q12 706 12 860q13 8 24 8h180q6 0 12 -12q0 -105 4 -536q0 -108 -8 -324l-12 -8h-200q-6 0 -12 12z" />
<glyph unicode="&#x22;" horiz-adv-x="672" />
<glyph unicode="#" horiz-adv-x="1336" />
<glyph unicode="$" />
<glyph unicode="%" horiz-adv-x="1610" />
<glyph unicode="&#x26;" horiz-adv-x="1683" />
<glyph unicode="'" horiz-adv-x="346" />
<glyph unicode="(" horiz-adv-x="758" />
<glyph unicode=")" horiz-adv-x="758" />
<glyph unicode="*" horiz-adv-x="1024" />
<glyph unicode="+" />
<glyph unicode="," horiz-adv-x="557" />
<glyph unicode="-" horiz-adv-x="670" />
<glyph unicode="." horiz-adv-x="376" d="M40 124q0 92 116 136l40 4q140 -14 140 -100v-16q0 -118 -160 -148q-132 17 -132 120q-4 0 -4 4z" />
<glyph unicode="/" horiz-adv-x="569" />
<glyph unicode="0" />
<glyph unicode="1" />
<glyph unicode="2" />
<glyph unicode="3" />
<glyph unicode="4" />
<glyph unicode="5" />
<glyph unicode="6" />
<glyph unicode="7" />
<glyph unicode="8" />
<glyph unicode="9" />
<glyph unicode=":" horiz-adv-x="557" />
<glyph unicode=";" horiz-adv-x="557" />
<glyph unicode="&#x3c;" />
<glyph unicode="=" />
<glyph unicode="&#x3e;" />
<glyph unicode="?" horiz-adv-x="748" />
<glyph unicode="@" horiz-adv-x="2019" />
<glyph unicode="A" horiz-adv-x="836" d="M40 16q96 1232 160 1808l12 8h176q42 0 128 4q16 -27 128 -680q80 -494 152 -1140l-12 -8h-236q-15 0 -72 540q-29 264 -52 264l-24 4h-8q-64 0 -64 -40q-27 0 -32 -500v-264q0 -6 -12 -12h-60q-184 0 -184 16zM332 1120q0 -52 56 -52q16 18 16 56v40q-7 280 -32 280 l-24 12v-8q0 -105 -16 -308v-20z" />
<glyph unicode="B" horiz-adv-x="1080" d="M40 1764q68 44 340 72q13 4 84 4h16q398 0 504 -280q52 -149 52 -272q0 -309 -288 -400q-80 -24 -92 -24v-4q143 -25 200 -84q184 -203 184 -412v-20q0 -219 -220 -296q-87 -40 -544 -40q0 -4 -48 -8q-16 0 -32 208q-20 189 -100 1188q-32 237 -56 368zM328 1460 q16 -149 40 -452l16 -8q218 40 308 84q120 72 120 192q0 196 -244 272q-72 12 -112 12q-124 0 -124 -60q0 -39 -4 -40zM380 588q39 -388 52 -388q7 -4 16 -4q185 20 264 60q77 46 104 96v40q0 148 -160 204q-98 16 -172 16h-32q-57 0 -72 -24z" />
<glyph unicode="C" horiz-adv-x="948" d="M40 792q24 617 68 708q66 210 188 280q88 52 180 52q155 0 284 -112q16 -28 16 -40q0 -43 -88 -104q0 -6 -24 -24h-12q-70 92 -156 92q-218 0 -252 -572q-8 -145 -8 -268q10 -500 244 -612q50 -20 96 -20q99 0 204 88q60 -23 128 -92v-4q-98 -164 -324 -164 q-250 0 -396 176q-148 220 -148 616z" />
<glyph unicode="D" horiz-adv-x="884" d="M40 16q8 421 8 528q-8 902 -8 1228q118 52 240 52q430 0 540 -600q20 -132 20 -244v-24q0 -16 4 -32q-4 -15 -4 -32v-32q0 -522 -276 -788q-93 -72 -284 -72q-204 8 -224 8zM232 1404q0 -815 24 -1208l12 -8h4q93 0 220 132q172 256 172 600q0 477 -280 604 q-103 32 -136 32q-16 -6 -16 -12v-140z" />
<glyph unicode="E" horiz-adv-x="880" d="M40 780q4 45 4 104q0 254 4 908q8 0 8 8q232 8 300 8q384 -12 384 -36v-4q0 -216 -16 -216q-133 -12 -272 -16q-119 4 -132 8q-24 -8 -24 -44q8 -380 28 -380q89 -12 348 -28q48 -11 48 -20v-56q0 -46 -4 -140l-16 -12q-239 8 -380 28q-8 -46 -8 -96q0 -127 4 -520 q13 -40 112 -40l396 16q16 -6 16 -12v-220l-8 -12q-147 -8 -312 -8h-84q-362 11 -380 44q-12 226 -12 536v104q0 73 -4 96z" />
<glyph unicode="F" horiz-adv-x="788" d="M40 728v392q0 304 8 664l16 12q148 8 240 8h60q380 -9 380 -32t4 -28q-4 -25 -8 -188l-16 -12q-225 -12 -292 -12q-25 0 -104 4q-28 0 -28 -68v-68q8 -296 32 -296q0 -19 388 -36q8 -10 8 -16q0 -208 -20 -208q-50 8 -356 28q-40 0 -40 -80v-132q0 -109 12 -648l-16 -12 h-4q-256 0 -256 16v4q-8 383 -8 708z" />
<glyph unicode="G" horiz-adv-x="932" d="M40 832v44q0 645 88 768q109 204 336 204q283 0 380 -228q48 -134 48 -284v-12q0 -140 -16 -140q-68 0 -156 -4q-44 3 -44 12q8 108 8 144q0 201 -120 268q-55 32 -112 32h-20q-133 0 -164 -192q-20 -85 -20 -740q0 -377 152 -456q41 -16 56 -16h32q99 0 152 200 q16 77 16 108q-7 32 -16 32h-20q-68 2 -76 24v24q0 31 -4 56q0 76 32 76q48 8 132 8q154 -8 164 -32v-96q0 -460 -208 -592q-64 -40 -128 -40h-32q-166 0 -320 208q-140 214 -140 624z" />
<glyph unicode="H" horiz-adv-x="836" d="M40 1700v132q3 24 12 24h144l12 -8h12q19 0 40 4q56 0 56 -72l-8 -136q32 -499 32 -540q18 -12 80 -12h32q52 0 52 20q-52 633 -52 732l8 4l136 4q116 0 116 -24q80 -1215 80 -1752q4 0 4 -40q-13 -12 -20 -12q-160 -12 -216 -12h-32q-6 0 -16 16q-12 165 -12 316v84 q0 112 4 308q-4 21 -4 48l-24 4q-116 0 -116 -44q12 -312 12 -620v-112q0 -6 -12 -12h-80q-195 3 -208 20q4 101 4 160v56q0 192 -36 1464z" />
<glyph unicode="I" horiz-adv-x="340" d="M40 1848l12 8h76q152 0 152 -60q0 -8 -4 -8l24 -1784l-8 -4h-140q-62 0 -80 12q-16 1284 -32 1836z" />
<glyph unicode="J" horiz-adv-x="804" d="M40 560q6 16 12 16h188q15 0 56 -244q34 -84 96 -84h8q116 0 116 364v68q0 119 -36 1080v20q10 31 24 36h24q58 0 156 -4q16 -4 16 -16q0 -119 60 -948q4 -129 4 -144q0 -542 -236 -680q-37 -16 -96 -24q-153 0 -288 184q-104 177 -104 376z" />
<glyph unicode="K" horiz-adv-x="1096" d="M40 1824q13 8 24 8h172q22 0 28 -16v-336q0 -61 -4 -168q178 181 444 492q22 0 176 -128v-8q-99 -123 -248 -288q-256 -280 -256 -288q6 -44 144 -212q439 -603 536 -744v-8q-88 -76 -192 -116q-27 23 -480 668l-132 172q12 -266 12 -716v-124q0 -6 -12 -12h-184 q-12 4 -12 24q0 387 -16 1800z" />
<glyph unicode="L" horiz-adv-x="844" d="M40 1784q10 31 24 36h252l16 -12l8 -1460q4 -23 4 -64q30 -12 76 -12q295 12 320 12q64 -3 64 -16v-244q0 -9 -20 -12q-317 -12 -476 -12q-220 0 -220 16z" />
<glyph unicode="M" horiz-adv-x="1756" d="M40 1832q15 12 28 12h204q28 0 28 -52q4 -128 4 -220v-28h4q22 78 92 128q64 36 136 36h32q175 0 312 -144q44 -57 44 -104h4q83 196 272 196q248 0 420 -212q96 -153 96 -496q0 -155 -68 -844q0 -104 -12 -104q-245 17 -252 24v8q68 293 68 800q0 306 -152 384 q-45 12 -72 12h-4q-147 0 -188 -208q-30 -189 -32 -376q-10 -8 -16 -8q-184 12 -184 28q12 97 12 176v12q0 254 -144 340q-41 20 -80 20q-206 0 -252 -388q-8 -62 -8 -144q0 -178 52 -656q-8 -1 -8 -8q-86 -4 -128 -4h-28q-76 0 -76 20q-104 1553 -104 1800z" />
<glyph unicode="N" horiz-adv-x="996" d="M40 1668v108q22 36 260 56l8 -12v-60q0 -28 4 -88q93 24 164 24h16q302 0 404 -304q60 -146 60 -988v-100q-7 -304 -28 -304q-18 0 -24 4q-67 -4 -104 -4q-148 0 -148 20v308q0 112 -4 236q0 82 32 500q0 272 -176 332q-32 8 -40 8h-32q-104 0 -104 -240v-92 q0 -393 56 -1064q-13 -8 -24 -8h-188q-28 0 -28 52q-48 283 -88 1384q-16 144 -16 232z" />
<glyph unicode="O" horiz-adv-x="1012" d="M40 828v28q0 550 204 844q135 140 252 140h40q212 0 336 -332q100 -317 100 -708q0 -442 -184 -672q-123 -128 -280 -128q-281 0 -408 396q-60 201 -60 432zM252 936q0 -385 196 -496q36 -8 52 -8h8q155 0 212 356q8 58 8 136v48q0 277 -112 416q-53 40 -100 40 q-175 0 -248 -296q-16 -84 -16 -164v-32z" />
<glyph unicode="P" horiz-adv-x="836" d="M40 1712q0 68 56 92q95 44 200 44q222 0 404 -184q96 -141 96 -332v-20q0 -285 -140 -364q-100 -64 -280 -64l-40 4q4 -184 4 -280v-160q0 -440 -20 -440q-20 -8 -92 -8q-145 4 -160 20q-12 208 -16 1604zM296 1124q0 -44 52 -44q185 0 236 164q8 40 8 72v32 q0 155 -156 236q-40 16 -80 16h-32l-28 -4v-472z" />
<glyph unicode="Q" horiz-adv-x="868" d="M40 1324q0 258 244 364q60 24 120 24h40q54 0 112 -16q35 120 44 120h36q46 0 84 4q93 -5 108 -16q-13 -1459 -20 -1800q-4 0 -4 -4q-106 4 -168 4h-28q-11 0 -24 8q8 265 16 900l4 8q-4 8 -4 12h-4q-99 -16 -136 -16q-254 0 -368 196q-52 106 -52 212zM260 1316 q0 -125 196 -192q50 -4 52 -4q92 0 92 52q-4 169 -4 252v32q0 25 -104 32q-174 0 -224 -120z" />
<glyph unicode="R" horiz-adv-x="908" d="M40 1716v32q0 53 180 100q16 7 88 12q233 0 436 -180q124 -150 124 -308q0 -245 -268 -408q-61 -28 -116 -44v-4q178 -356 324 -808q20 -63 20 -76q-5 -20 -116 -20q-74 4 -132 4q0 16 -204 592q-16 39 -16 56h-4v-36q0 -191 20 -608q-50 -20 -132 -20h-140q-6 0 -16 16 q0 519 -44 1640q-4 0 -4 60zM304 1196q5 -64 12 -76q114 0 232 96q76 78 76 168q0 117 -152 192q-33 16 -68 16h-40q-56 0 -56 -144q0 -212 -4 -252z" />
<glyph unicode="S" horiz-adv-x="1300" d="M40 1196v20q0 287 220 464q193 128 416 128h52q315 0 480 -232q48 -86 48 -120q-71 -76 -164 -76q-1 -3 -56 -16q-16 0 -56 112q-83 160 -296 160q-247 0 -396 -200q-56 -110 -56 -212v-20q0 -258 284 -340q74 -24 380 -80q225 -60 300 -176q64 -114 64 -212v-12 q0 -294 -476 -376q-46 -8 -112 -8h-56q-296 0 -480 160l-4 8v4q88 136 132 136h20q22 0 136 -52q114 -44 244 -44q356 23 356 176v4q0 158 -388 216q-224 56 -340 124q-252 178 -252 464z" />
<glyph unicode="T" horiz-adv-x="964" d="M40 1716q0 120 28 120l776 -20h48q11 0 24 -8q8 -179 8 -236q0 -28 -132 -28q-29 -4 -136 -4h-8q-40 0 -40 -72q-12 -196 -16 -524q0 -172 20 -928l-12 -8l-156 -8q-125 0 -144 20q37 154 44 1240q4 28 16 292q-17 16 -44 16q-61 0 -268 -20l-4 8v4q0 85 -4 156z" />
<glyph unicode="U" horiz-adv-x="1192" d="M40 992v88l16 736q8 0 8 8q194 -8 308 -8l8 -12q-68 -460 -68 -788q0 -596 156 -748q38 -28 80 -28h8q202 0 280 244q44 144 44 348v44q0 344 -108 924q0 17 132 28q35 -4 60 -4h92q22 0 72 -432q24 -223 24 -388q0 -693 -292 -932q-111 -72 -228 -72q-252 0 -408 184 q-184 249 -184 808z" />
<glyph unicode="V" horiz-adv-x="1200" d="M40 1740q0 19 268 48q12 -24 88 -428q100 -449 204 -864h4q60 319 232 1308q8 32 16 32q308 -53 308 -64q-60 -302 -392 -1764l-12 -8q-252 12 -312 12h-4q-18 0 -84 312z" />
<glyph unicode="W" horiz-adv-x="1808" d="M40 1444v372q0 8 12 8q268 -30 268 -44q16 -137 16 -348v-300q0 -649 192 -784q71 -40 120 -40q114 0 160 228q12 69 12 128v16q3 24 12 24q264 -18 264 -48q0 -261 140 -324q51 -5 56 -8q104 0 140 220q40 151 40 408q-28 708 -28 816q0 28 96 28h136q32 0 32 -72 q60 -398 60 -660q0 -550 -116 -832q-119 -232 -348 -232q-201 0 -308 180q-20 36 -20 52h-8q-54 -127 -200 -188q-72 -32 -152 -32h-24q-382 0 -508 788q-44 242 -44 644z" />
<glyph unicode="X" horiz-adv-x="1480" d="M40 144v8q128 196 420 676q76 102 76 132q0 34 -304 576l-80 148q4 29 176 120q0 6 20 16h4q28 -25 168 -268q210 -372 220 -376q113 129 528 624q13 8 20 8q59 -47 152 -136v-12q-412 -516 -536 -656q-28 -39 -28 -64v-8q312 -468 520 -764v-12q-55 -48 -196 -128h-8 q-36 39 -368 576q-110 186 -116 188h-4q-452 -757 -452 -772l-20 -20q-53 19 -192 144z" />
<glyph unicode="Y" horiz-adv-x="1128" d="M40 1668v8q1 5 220 132q18 -7 168 -228q172 -264 208 -312h4q84 252 172 536q8 0 8 4q166 -28 268 -56v-8q-504 -1718 -516 -1740q-4 0 -4 -4q-264 55 -264 68q184 665 264 844q8 32 8 48q0 54 -116 164q-220 276 -420 544z" />
<glyph unicode="Z" horiz-adv-x="956" d="M40 44v32q0 191 172 564q332 847 332 864v8q-12 4 -12 8q-60 -4 -88 -4h-176q-21 0 -24 12v220q0 107 16 120q275 -8 584 -12q8 -10 8 -16l28 -264q0 -85 -120 -336l-364 -976q0 -6 16 -20l456 12q11 -4 48 -244q0 -6 -12 -12h-852q-12 0 -12 44z" />
<glyph unicode="[" horiz-adv-x="758" />
<glyph unicode="\" horiz-adv-x="569" />
<glyph unicode="]" horiz-adv-x="758" />
<glyph unicode="^" />
<glyph unicode="_" horiz-adv-x="1024" />
<glyph unicode="`" horiz-adv-x="1024" />
<glyph unicode="a" horiz-adv-x="1072" d="M40 500q0 285 328 388q113 16 132 16q160 0 288 -92v44q3 24 12 24h200l12 -8q0 -46 20 -864l-12 -8h-208q-6 0 -12 16q4 22 4 36v4q0 8 -8 8h-8q-192 -60 -280 -60q-314 0 -424 284q-44 113 -44 212zM248 436q0 -149 164 -204q82 -20 164 -20q180 0 180 44q0 12 4 12 q-4 66 -4 100v128q0 135 -60 164q-77 44 -144 44q-214 0 -292 -188q-12 -46 -12 -80z" />
<glyph unicode="b" horiz-adv-x="872" d="M40 664q0 187 8 984q-4 54 -4 80q0 15 24 32h172q24 -2 24 -12q-4 -409 -4 -600q0 -220 24 -220l20 -4q21 0 80 8q222 0 364 -160q84 -113 84 -276v-52q0 -193 -136 -332q-117 -112 -364 -112q-272 8 -272 24q-20 334 -20 640zM264 336q0 -65 12 -104h64q206 0 276 176 q8 30 12 72q0 137 -152 224q-41 20 -144 28q-47 0 -64 -20q-4 -101 -4 -160v-216z" />
<glyph unicode="c" horiz-adv-x="800" d="M40 396v40q0 185 116 344q137 148 324 148q116 0 188 -88q-57 -156 -80 -156q-89 44 -164 44h-8q-128 0 -172 -192q-8 -40 -8 -72v-44q26 -264 172 -264q115 0 272 104h8q22 -10 72 -104v-8q-139 -148 -336 -148q-253 0 -360 272q-24 62 -24 124z" />
<glyph unicode="d" horiz-adv-x="976" d="M40 516q0 279 216 372q97 36 180 36t212 -40v92l-20 796q6 16 12 16h220q12 0 12 -16q0 -690 64 -1764q-13 -8 -24 -8h-192q-6 0 -16 16v120q-203 -84 -320 -84q-271 0 -340 368q-4 56 -4 96zM236 480q0 -166 112 -208q28 -8 48 -8h32q74 0 256 60v8q-12 268 -12 340 q-46 41 -140 56q-40 8 -72 8h-40q-151 0 -184 -212v-44z" />
<glyph unicode="e" horiz-adv-x="900" d="M40 420v36q0 318 196 536q102 80 196 80h16q286 0 380 -352q32 -123 32 -232q0 -17 -384 -48q-228 -10 -228 -24q-16 -18 -16 -80v-4q0 -122 180 -144h16q150 0 240 116h4q43 -11 144 -100q-149 -204 -416 -204q-256 0 -336 244q-24 93 -24 176zM256 596q1 -8 8 -8h8 q432 10 432 36l4 20v4q-60 252 -232 252q-193 0 -220 -240v-64z" />
<glyph unicode="f" horiz-adv-x="740" d="M40 724v128q0 76 28 76h164q9 0 16 36l-20 440q0 240 156 320q62 28 120 28q172 0 288 -160v-12q-93 -116 -104 -116l-140 112l-28 8h-16q-76 -24 -76 -196q0 -12 -4 -28q16 -282 16 -376v-8l-4 -40q39 -11 248 -16l8 -12v-184q0 -16 -108 -16h-120q-24 0 -24 -24 q24 -513 40 -664q0 -14 -100 -20q-31 4 -68 4h-36q-20 0 -20 528q0 8 4 88q0 63 -36 88h-88q-96 0 -96 16z" />
<glyph unicode="g" horiz-adv-x="1040" d="M40 -288q24 26 168 60h4q204 -184 312 -184h8q166 0 236 236q8 54 12 116q-6 120 -16 120q-100 -56 -220 -56q-190 0 -340 116q-124 118 -124 276v12q0 240 292 396q81 32 148 32h40q83 0 204 -52l-8 116q5 20 12 20h44q79 0 148 8q28 -36 28 -64q8 -359 8 -620v-220 q0 -25 4 -60q0 -412 -208 -520q-104 -44 -196 -44h-56q-198 0 -400 152q-96 102 -100 160zM296 392q0 -212 252 -212h20q128 0 188 72l4 28v316q0 44 -68 44q-39 12 -136 16q-260 0 -260 -248v-16z" />
<glyph unicode="h" horiz-adv-x="912" d="M40 1116l8 624l12 8h196q12 -4 12 -24v-868q0 -6 12 -12q121 40 188 40q321 0 380 -464q12 -62 24 -388q-12 -4 -12 -8q-36 8 -96 8h-132q-9 0 -12 28q0 381 -80 464q-56 72 -112 72q-104 0 -144 -152q-12 -60 -16 -204q4 -77 4 -188v-36q0 -16 -92 -16h-44q-92 0 -92 20 q0 488 -4 1096z" />
<glyph unicode="i" horiz-adv-x="376" d="M40 1552v16q0 118 160 148q132 -17 132 -120q4 0 4 -4q0 -92 -116 -136l-40 -4q-140 14 -140 100zM68 548q0 108 8 324l12 8h200q6 0 12 -12q-12 -706 -12 -860q-13 -8 -24 -8h-180q-6 0 -12 12q0 106 -4 536z" />
<glyph unicode="j" horiz-adv-x="378" d="M-330 -200q0 6 12 12h4q76 0 188 -16q-4 -66 -4 -100v-24q0 -90 80 -104h20q96 0 120 280q4 80 4 140q-8 597 -8 752v112l12 16q9 0 16 -4q122 8 192 8q13 0 32 -1048q0 -365 -192 -452q-90 -32 -172 -32q-218 0 -288 216q-16 79 -16 136v108zM46 1588v8q0 101 168 124 q112 -14 112 -88q4 0 4 -24q0 -115 -144 -164h-28q-70 0 -92 64q-20 43 -20 80z" />
<glyph unicode="k" horiz-adv-x="900" d="M40 724v1004q1 8 8 8h224l12 -8q4 -101 4 -160v-56q0 -128 -8 -388l-4 -20h4q107 73 220 196q17 16 32 16q32 0 116 -140q12 0 12 -8v-8q-14 -19 -248 -240l-4 -20q0 -30 132 -228q289 -477 320 -552v-4q-152 -88 -172 -88h-4q-151 219 -396 640h-4l4 -20v-20 q0 -128 4 -172q-4 -103 -8 -432q0 -24 -136 -24h-72q-11 0 -24 8q-12 345 -12 716z" />
<glyph unicode="l" horiz-adv-x="316" d="M40 1712q10 34 20 36h196q12 0 12 -16q8 -1536 8 -1716q-6 0 -12 -12q-74 -4 -108 -4h-44q-68 0 -68 16v1600q0 40 -4 96z" />
<glyph unicode="m" horiz-adv-x="1376" d="M40 8v1024q0 6 12 12h212q28 0 28 -52q4 -34 4 -88v-36l-4 -28q71 68 148 68h40q138 0 224 -148q182 128 224 128q20 8 64 12q239 0 320 -368q24 -96 24 -212v-64q0 -134 -32 -256h-204q-8 0 -8 8q4 126 4 152q0 293 -128 376q-20 12 -40 12h-24q-79 0 -124 -116 q-20 -57 -20 -136v-56q0 -76 20 -228q-19 -12 -72 -12h-128q-6 0 -12 12q0 450 -96 496l-28 4h-8q-132 0 -160 -184q-4 -38 -4 -72v-12q0 -56 20 -240l-8 -4h-236q-8 0 -8 8z" />
<glyph unicode="n" horiz-adv-x="768" d="M40 1028l12 8h176q8 -1 8 -8v-152q0 -6 12 -12h32q135 20 196 24q164 0 220 -164q32 -124 32 -268q-12 -328 -12 -384v-64q0 -8 -8 -8h-204q-16 0 -16 76l20 328v64q-15 224 -104 224h-12q-112 0 -112 -288v-24q0 -100 20 -376l-8 -4h-224q-12 2 -12 28q0 360 -16 1000z " />
<glyph unicode="o" horiz-adv-x="1028" d="M40 404v40q0 227 248 396q120 60 236 60h4q325 0 444 -332q16 -78 16 -124v-48q0 -276 -316 -380q-76 -16 -140 -16q-252 0 -424 188q-68 104 -68 216zM236 388q0 -169 232 -216q12 -4 48 -4h16q207 0 260 196q4 40 4 60q0 176 -160 256q-36 16 -100 16q-198 0 -288 -196 q-12 -42 -12 -64v-48z" />
<glyph unicode="p" horiz-adv-x="872" d="M40 -224q0 189 8 760q0 74 -8 312q134 64 292 64q335 0 464 -276q36 -108 36 -208q0 -295 -332 -396q-62 -20 -212 -36q12 -515 12 -584l4 -16q-6 -16 -12 -16h-228q-6 0 -12 12q-12 225 -12 384zM260 272q0 -48 36 -60q232 0 308 140q20 53 20 108q0 192 -232 264 q-21 4 -40 4h-48q-31 0 -36 -16q0 -59 4 -160q0 -72 -12 -280z" />
<glyph unicode="q" horiz-adv-x="860" d="M40 446v36q0 242 224 368q144 76 332 76h48q144 0 144 -20q16 -851 16 -1204q4 -35 4 -40q63 21 224 96h4q16 0 16 -84v-108q0 -11 -200 -88q-208 -88 -244 -88l-8 12q0 91 -12 548q0 52 -40 52q-116 0 -304 88q-204 134 -204 356zM248 458q0 -165 180 -224 q73 -16 120 -16h40l16 12q-4 145 -4 208v96q0 52 8 124q0 72 -52 72h-12q-202 0 -280 -180q-16 -40 -16 -92z" />
<glyph unicode="r" horiz-adv-x="800" d="M40 888l12 8h176q6 0 12 -12q0 -13 4 -116q126 60 256 60q156 0 260 -84v-4q0 -29 -120 -160h-4q-128 28 -180 28h-16q-172 0 -172 -296q8 -240 8 -300q-13 -12 -68 -12h-132q-6 0 -12 16q-12 375 -24 872z" />
<glyph unicode="s" horiz-adv-x="872" d="M40 232q149 96 164 96q150 -116 264 -116h44q85 0 100 56q0 84 -240 168q-208 110 -208 236v28q0 123 144 216q72 28 132 28h8q190 0 272 -176q16 -37 16 -68q-49 -50 -148 -76h-4q-8 5 -36 80q-35 32 -80 32h-12q-38 0 -60 -32v-12q0 -69 264 -172q172 -90 172 -244v-32 q0 -159 -184 -224q-21 -12 -120 -20q-207 0 -416 136q-72 72 -72 96z" />
<glyph unicode="t" horiz-adv-x="920" d="M40 1168q13 8 24 8h60q37 0 104 -4q36 6 36 36q-16 666 -16 748v48q1 8 8 8h236q9 0 12 -52q-4 -306 -4 -384q0 -67 4 -356q3 -44 36 -44h136q22 0 28 -16v-196q-8 -16 -20 -16q-30 0 -168 -4q-28 0 -28 -112v-160q0 -365 92 -456q29 -12 36 -12h12q40 0 148 100l24 8 q80 -137 80 -148q-147 -164 -296 -164q-232 0 -276 312q-12 68 -12 164v176q0 276 -16 276l-8 4h-212q-15 0 -20 236z" />
<glyph unicode="u" horiz-adv-x="920" d="M40 568q13 299 36 304q8 4 12 4q165 4 204 12q24 0 24 -136v-16q0 -90 -4 -212q0 -348 88 -348h20q80 0 104 160q4 38 4 76v24q0 108 -12 400q3 64 16 64h216q18 0 40 -184q92 -474 92 -676q0 -8 -12 -8q-192 0 -192 20q-16 77 -16 88h-8q-72 -140 -236 -140h-12 q-258 0 -344 368q-12 43 -20 200z" />
<glyph unicode="v" horiz-adv-x="844" d="M40 828l232 76h8q12 -11 120 -428q8 -12 44 -140q13 0 92 460q22 104 32 104q236 -40 236 -48q-48 -233 -216 -848l-8 -4h-244q-13 0 -100 260q-196 536 -196 568z" />
<glyph unicode="w" horiz-adv-x="1308" d="M40 868v24q0 6 12 12h208q3 0 12 -12q-8 -61 -8 -200v-8q0 -343 132 -440q21 -12 40 -12h16q83 0 112 96q12 48 12 88v76q1 8 8 8h16q188 -11 188 -28q-4 -50 -4 -52q0 -132 60 -176q31 -12 44 -12h20q104 0 128 452q0 95 -20 224q17 16 88 16h144q18 0 20 -184 q0 -376 -116 -608q-96 -132 -232 -132q-156 0 -228 152h-8q-88 -148 -260 -148q-218 0 -340 376q-44 135 -44 488z" />
<glyph unicode="x" horiz-adv-x="980" d="M40 152q260 348 260 356v28q0 40 -144 240q-32 42 -32 56q32 29 200 136h4q61 -65 192 -268q226 256 244 256q48 0 176 -156v-8q0 -2 -220 -248q-12 -20 -12 -32v-12q0 -34 132 -216q92 -137 92 -148q-142 -119 -204 -136q-12 7 -192 308l-32 36h-4q-72 -92 -256 -344h-8 q-53 25 -196 152z" />
<glyph unicode="y" horiz-adv-x="1188" d="M40 704v4q8 13 200 124q27 20 44 20h4q277 -337 444 -576h8q116 429 168 596h8q187 -37 232 -72v-4q-452 -1381 -488 -1476h-12q-78 0 -208 48v8q124 409 180 532l4 40v12q0 31 -308 388q-198 234 -276 356z" />
<glyph unicode="z" horiz-adv-x="1016" d="M40 664q8 198 8 228l12 8h264q648 -9 648 -44q-4 -21 -4 -24q8 -91 8 -140v-12q0 -74 -188 -164q-15 -15 -404 -268q0 -8 12 -8l476 -20q16 -6 16 -12q8 -130 8 -200q-8 -1 -8 -8q-156 8 -364 8h-28q-251 0 -440 -8q-8 10 -8 16q0 92 4 292q0 64 164 160q0 6 252 168v4 q-54 4 -80 4h-336q-9 0 -12 20z" />
<glyph unicode="{" />
<glyph unicode="|" />
<glyph unicode="}" />
<glyph unicode="~" />
<glyph unicode="&#xa1;" horiz-adv-x="672" />
<glyph unicode="&#xa2;" horiz-adv-x="1139" />
<glyph unicode="&#xa3;" />
<glyph unicode="&#xa4;" />
<glyph unicode="&#xa5;" horiz-adv-x="1262" />
<glyph unicode="&#xa6;" />
<glyph unicode="&#xa7;" />
<glyph unicode="&#xa8;" horiz-adv-x="1024" />
<glyph unicode="&#xa9;" horiz-adv-x="1674" />
<glyph unicode="&#xaa;" horiz-adv-x="648" />
<glyph unicode="&#xab;" horiz-adv-x="944" />
<glyph unicode="&#xac;" />
<glyph unicode="&#xad;" horiz-adv-x="670" />
<glyph unicode="&#xae;" horiz-adv-x="1674" />
<glyph unicode="&#xaf;" horiz-adv-x="670" />
<glyph unicode="&#xb0;" horiz-adv-x="674" />
<glyph unicode="&#xb1;" />
<glyph unicode="&#xb2;" />
<glyph unicode="&#xb3;" />
<glyph unicode="&#xb4;" horiz-adv-x="1024" />
<glyph unicode="&#xb5;" horiz-adv-x="1180" />
<glyph unicode="&#xb6;" horiz-adv-x="1024" />
<glyph unicode="&#xb7;" horiz-adv-x="508" />
<glyph unicode="&#xb8;" horiz-adv-x="1024" />
<glyph unicode="&#xb9;" />
<glyph unicode="&#xba;" horiz-adv-x="718" />
<glyph unicode="&#xbb;" horiz-adv-x="944" />
<glyph unicode="&#xbc;" horiz-adv-x="1708" />
<glyph unicode="&#xbd;" horiz-adv-x="1964" />
<glyph unicode="&#xbe;" horiz-adv-x="1708" />
<glyph unicode="&#xbf;" horiz-adv-x="748" />
<glyph unicode="&#xc0;" horiz-adv-x="1540" />
<glyph unicode="&#xc1;" horiz-adv-x="1540" />
<glyph unicode="&#xc2;" horiz-adv-x="1540" />
<glyph unicode="&#xc3;" horiz-adv-x="1540" />
<glyph unicode="&#xc4;" horiz-adv-x="1540" />
<glyph unicode="&#xc5;" horiz-adv-x="1540" />
<glyph unicode="&#xc6;" horiz-adv-x="2118" />
<glyph unicode="&#xc7;" horiz-adv-x="1399" />
<glyph unicode="&#xc8;" horiz-adv-x="1151" />
<glyph unicode="&#xc9;" horiz-adv-x="1151" />
<glyph unicode="&#xca;" horiz-adv-x="1151" />
<glyph unicode="&#xcb;" horiz-adv-x="1151" />
<glyph unicode="&#xcc;" horiz-adv-x="657" />
<glyph unicode="&#xcd;" horiz-adv-x="657" />
<glyph unicode="&#xce;" horiz-adv-x="657" />
<glyph unicode="&#xcf;" horiz-adv-x="657" />
<glyph unicode="&#xd0;" horiz-adv-x="1518" />
<glyph unicode="&#xd1;" horiz-adv-x="1554" />
<glyph unicode="&#xd2;" horiz-adv-x="1614" />
<glyph unicode="&#xd3;" horiz-adv-x="1614" />
<glyph unicode="&#xd4;" horiz-adv-x="1614" />
<glyph unicode="&#xd5;" horiz-adv-x="1614" />
<glyph unicode="&#xd6;" horiz-adv-x="1614" />
<glyph unicode="&#xd7;" />
<glyph unicode="&#xd8;" horiz-adv-x="1614" />
<glyph unicode="&#xd9;" horiz-adv-x="1501" />
<glyph unicode="&#xda;" horiz-adv-x="1501" />
<glyph unicode="&#xdb;" horiz-adv-x="1501" />
<glyph unicode="&#xdc;" horiz-adv-x="1501" />
<glyph unicode="&#xdd;" horiz-adv-x="1233" />
<glyph unicode="&#xde;" horiz-adv-x="1120" />
<glyph unicode="&#xdf;" horiz-adv-x="1251" />
<glyph unicode="&#xe0;" horiz-adv-x="922" />
<glyph unicode="&#xe1;" horiz-adv-x="922" />
<glyph unicode="&#xe2;" horiz-adv-x="922" />
<glyph unicode="&#xe3;" horiz-adv-x="922" />
<glyph unicode="&#xe4;" horiz-adv-x="922" />
<glyph unicode="&#xe5;" horiz-adv-x="922" />
<glyph unicode="&#xe6;" horiz-adv-x="1454" />
<glyph unicode="&#xe7;" horiz-adv-x="905" />
<glyph unicode="&#xe8;" horiz-adv-x="909" />
<glyph unicode="&#xe9;" horiz-adv-x="909" />
<glyph unicode="&#xea;" horiz-adv-x="909" />
<glyph unicode="&#xeb;" horiz-adv-x="909" />
<glyph unicode="&#xec;" horiz-adv-x="514" />
<glyph unicode="&#xed;" horiz-adv-x="514" />
<glyph unicode="&#xee;" horiz-adv-x="514" />
<glyph unicode="&#xef;" horiz-adv-x="514" />
<glyph unicode="&#xf0;" horiz-adv-x="1139" />
<glyph unicode="&#xf1;" horiz-adv-x="1108" />
<glyph unicode="&#xf2;" horiz-adv-x="1010" />
<glyph unicode="&#xf3;" horiz-adv-x="1010" />
<glyph unicode="&#xf4;" horiz-adv-x="1010" />
<glyph unicode="&#xf5;" horiz-adv-x="1010" />
<glyph unicode="&#xf6;" horiz-adv-x="1010" />
<glyph unicode="&#xf7;" />
<glyph unicode="&#xf8;" horiz-adv-x="1010" />
<glyph unicode="&#xf9;" horiz-adv-x="1059" />
<glyph unicode="&#xfa;" horiz-adv-x="1059" />
<glyph unicode="&#xfb;" horiz-adv-x="1059" />
<glyph unicode="&#xfc;" horiz-adv-x="1059" />
<glyph unicode="&#xfd;" horiz-adv-x="868" />
<glyph unicode="&#xfe;" horiz-adv-x="1010" />
<glyph unicode="&#xff;" horiz-adv-x="868" />
<glyph unicode="&#x2c6;" horiz-adv-x="1024" />
<glyph unicode="&#x2dc;" horiz-adv-x="1024" />
<glyph unicode="&#x2000;" horiz-adv-x="1006" />
<glyph unicode="&#x2001;" horiz-adv-x="2012" />
<glyph unicode="&#x2002;" horiz-adv-x="1006" />
<glyph unicode="&#x2003;" horiz-adv-x="2012" />
<glyph unicode="&#x2004;" horiz-adv-x="670" />
<glyph unicode="&#x2005;" horiz-adv-x="503" />
<glyph unicode="&#x2006;" horiz-adv-x="335" />
<glyph unicode="&#x2007;" horiz-adv-x="335" />
<glyph unicode="&#x2008;" horiz-adv-x="251" />
<glyph unicode="&#x2009;" horiz-adv-x="402" />
<glyph unicode="&#x200a;" horiz-adv-x="111" />
<glyph unicode="&#x2010;" horiz-adv-x="670" />
<glyph unicode="&#x2011;" horiz-adv-x="670" />
<glyph unicode="&#x2012;" horiz-adv-x="670" />
<glyph unicode="&#x2013;" horiz-adv-x="1108" />
<glyph unicode="&#x2014;" horiz-adv-x="2048" />
<glyph unicode="&#x2018;" horiz-adv-x="557" />
<glyph unicode="&#x2019;" horiz-adv-x="557" />
<glyph unicode="&#x201a;" horiz-adv-x="557" />
<glyph unicode="&#x201c;" horiz-adv-x="910" />
<glyph unicode="&#x201d;" horiz-adv-x="910" />
<glyph unicode="&#x201e;" horiz-adv-x="910" />
<glyph unicode="&#x2022;" horiz-adv-x="1024" />
<glyph unicode="&#x2026;" horiz-adv-x="2048" />
<glyph unicode="&#x202f;" horiz-adv-x="402" />
<glyph unicode="&#x2039;" horiz-adv-x="631" />
<glyph unicode="&#x203a;" horiz-adv-x="631" />
<glyph unicode="&#x205f;" horiz-adv-x="503" />
<glyph unicode="&#x20ac;" />
<glyph unicode="&#x2122;" horiz-adv-x="1497" />
<glyph unicode="&#xe000;" horiz-adv-x="970" d="M0 0v970h970v-970h-970z" />
</font>
</defs>
</svg>
